# xmcd
# 
# Track frame offsets:
#     150
#     14612
#     33620
#     53680
#     70522
#     86402
#     112382
#     126397
#     153937
#     173315
#     189807
#     214587
#     235080
#     258862
#     277342
#     300942
#     322880
# 
# Disc length: 4702
# 
# Revision: 16
# Processed by: cddbd v1.5.2PL0 Copyright (c) Steve Scherf et al.
# Submitted via: fre:ac v1.0.17
# 
DISCID=db125c11
DTITLE=The Moody Blues - The Best Of The Moody Blues
DYEAR=1996
DGENRE=Classic Rock
TTITLE0=Go Now
TTITLE1=Tuesday Afternoon (Forever Afternoon)
TTITLE2=Nights In White Satin
TTITLE3=Ride My See-Saw
TTITLE4=Voices In The Sky
TTITLE5=Question
TTITLE6=The Story In Your Eyes
TTITLE7=Isn't Life Strange
TTITLE8=I'm Just A Singer (In A Rock And Roll Band)
TTITLE9=Blue Guitar
TTITLE10=Steppin' In A Slide Zone
TTITLE11=Forever Autumn
TTITLE12=The Voice
TTITLE13=Gemini Dream
TTITLE14=Blue World
TTITLE15=Your Wildest Dreams
TTITLE16=I Know Your Out There Somewhere
EXTD=Digitally Remastered YEAR: 1996
EXTT0=
EXTT1=
EXTT2=
EXTT3=
EXTT4=
EXTT5=
EXTT6=
EXTT7=
EXTT8=
EXTT9=
EXTT10=
EXTT11=
EXTT12=
EXTT13=
EXTT14=
EXTT15=
EXTT16=
PLAYORDER=
